<svg viewBox="0 0 64 64" width="64" height="64" fill="none" xmlns="http://www.w3.org/2000/svg">
  <rect width="64" height="64" rx="14" fill="#080c14"/>
  <path d="M32 6L10 16V34C10 46 20 55 32 58C44 55 54 46 54 34V16L32 6Z"
    fill="#0a1628" stroke="url(#ss)" stroke-width="1.2"/>
  <circle cx="32" cy="24" r="3.5" fill="url(#nc)"/>
  <circle cx="22" cy="30" r="2.5" fill="url(#nl)"/>
  <circle cx="42" cy="30" r="2.5" fill="url(#nr)"/>
  <circle cx="26" cy="40" r="2" fill="#00CFFF"/>
  <circle cx="38" cy="40" r="2" fill="#C084FF"/>
  <circle cx="32" cy="46" r="2" fill="#7B5FFF"/>
  <line x1="32" y1="24" x2="22" y2="30" stroke="url(#cn)" stroke-width="1.2" opacity="0.85"/>
  <line x1="32" y1="24" x2="42" y2="30" stroke="url(#cn)" stroke-width="1.2" opacity="0.85"/>
  <line x1="22" y1="30" x2="26" y2="40" stroke="url(#cn)" stroke-width="1" opacity="0.65"/>
  <line x1="42" y1="30" x2="38" y2="40" stroke="url(#cn)" stroke-width="1" opacity="0.65"/>
  <line x1="26" y1="40" x2="32" y2="46" stroke="url(#cn)" stroke-width="1" opacity="0.5"/>
  <line x1="38" y1="40" x2="32" y2="46" stroke="url(#cn)" stroke-width="1" opacity="0.5"/>
  <circle cx="32" cy="24" r="7" fill="#00FFFF" opacity="0.12"/>
  <defs>
    <linearGradient id="ss" x1="10" y1="6" x2="54" y2="58">
      <stop stop-color="#00FFFF" stop-opacity="0.65"/>
      <stop offset="0.5" stop-color="#7B5FFF" stop-opacity="0.55"/>
      <stop offset="1" stop-color="#D26BFF" stop-opacity="0.45"/>
    </linearGradient>
    <radialGradient id="nc" cx="0.4" cy="0.3" r="0.8">
      <stop stop-color="#00FFFF"/>
      <stop offset="1" stop-color="#7B5FFF"/>
    </radialGradient>
    <radialGradient id="nl" cx="0.5" cy="0.5" r="0.8">
      <stop stop-color="#00E5FF"/>
      <stop offset="1" stop-color="#5B4FFF"/>
    </radialGradient>
    <radialGradient id="nr" cx="0.5" cy="0.5" r="0.8">
      <stop stop-color="#A78BFF"/>
      <stop offset="1" stop-color="#D26BFF"/>
    </radialGradient>
    <linearGradient id="cn" x1="0" y1="0" x2="1" y2="1">
      <stop stop-color="#00FFFF"/>
      <stop offset="1" stop-color="#8A2BE2"/>
    </linearGradient>
  </defs>
</svg>
