<svg width="1600" height="900" viewBox="0 0 1600 900" fill="none" xmlns="http://www.w3.org/2000/svg">
  <rect width="1600" height="900" fill="#060A10"/>
  <rect x="70" y="70" width="1460" height="760" rx="42" fill="url(#bg)"/>
  <rect x="140" y="140" width="1320" height="80" rx="24" fill="#0E131B" stroke="#ffffff" stroke-opacity="0.08"/>
  <circle cx="210" cy="180" r="11" fill="#EF4444"/>
  <circle cx="245" cy="180" r="11" fill="#F59E0B"/>
  <circle cx="280" cy="180" r="11" fill="#22C55E"/>
  <rect x="140" y="260" width="360" height="470" rx="28" fill="#0D1520" stroke="#22D3EE" stroke-opacity="0.24"/>
  <rect x="540" y="260" width="470" height="470" rx="28" fill="#101522" stroke="#38BDF8" stroke-opacity="0.24"/>
  <rect x="1050" y="260" width="410" height="470" rx="28" fill="#121327" stroke="#A78BFA" stroke-opacity="0.24"/>
  <rect x="190" y="324" width="180" height="18" rx="9" fill="#E0FBFF"/>
  <rect x="190" y="356" width="250" height="12" rx="6" fill="#67E8F9" fill-opacity="0.5"/>
  <rect x="590" y="324" width="210" height="18" rx="9" fill="#E0F2FE"/>
  <rect x="590" y="356" width="330" height="12" rx="6" fill="#60A5FA" fill-opacity="0.5"/>
  <rect x="1100" y="324" width="170" height="18" rx="9" fill="#F3E8FF"/>
  <rect x="1100" y="356" width="260" height="12" rx="6" fill="#C084FC" fill-opacity="0.5"/>
  <rect x="590" y="430" width="360" height="170" rx="24" fill="#0B1118" stroke="#ffffff" stroke-opacity="0.08"/>
  <rect x="620" y="470" width="130" height="14" rx="7" fill="#22D3EE"/>
  <rect x="620" y="502" width="220" height="12" rx="6" fill="#7DD3FC" fill-opacity="0.5"/>
  <defs>
    <linearGradient id="bg" x1="70" y1="70" x2="1530" y2="830" gradientUnits="userSpaceOnUse">
      <stop stop-color="#09111A"/>
      <stop offset="1" stop-color="#05070C"/>
    </linearGradient>
  </defs>
</svg>
