<svg width="1600" height="900" viewBox="0 0 1600 900" fill="none" xmlns="http://www.w3.org/2000/svg">
  <rect width="1600" height="900" fill="#050A10"/>
  <rect x="70" y="70" width="1460" height="760" rx="42" fill="url(#bg)"/>
  <rect x="180" y="170" width="1240" height="120" rx="28" fill="#0D1824" stroke="#22D3EE" stroke-opacity="0.25"/>
  <rect x="180" y="340" width="1240" height="120" rx="28" fill="#101626" stroke="#38BDF8" stroke-opacity="0.22"/>
  <rect x="180" y="510" width="1240" height="120" rx="28" fill="#12132A" stroke="#A78BFA" stroke-opacity="0.26"/>
  <rect x="180" y="680" width="1240" height="80" rx="28" fill="#0C1118" stroke="#F59E0B" stroke-opacity="0.26"/>
  <g opacity="0.9">
    <circle cx="270" cy="230" r="18" fill="#22D3EE"/>
    <circle cx="270" cy="400" r="18" fill="#38BDF8"/>
    <circle cx="270" cy="570" r="18" fill="#A78BFA"/>
    <circle cx="270" cy="720" r="18" fill="#F59E0B"/>
  </g>
  <path d="M306 230H1310" stroke="#22D3EE" stroke-width="2.5" stroke-dasharray="8 12"/>
  <path d="M306 400H1310" stroke="#38BDF8" stroke-width="2.5" stroke-dasharray="8 12"/>
  <path d="M306 570H1310" stroke="#A78BFA" stroke-width="2.5" stroke-dasharray="8 12"/>
  <path d="M306 720H1310" stroke="#F59E0B" stroke-width="2.5" stroke-dasharray="8 12"/>
  <rect x="360" y="204" width="170" height="20" rx="10" fill="#E0FBFF"/>
  <rect x="360" y="232" width="230" height="14" rx="7" fill="#67E8F9" fill-opacity="0.5"/>
  <rect x="620" y="374" width="190" height="20" rx="10" fill="#E0F2FE"/>
  <rect x="620" y="402" width="250" height="14" rx="7" fill="#60A5FA" fill-opacity="0.5"/>
  <rect x="930" y="544" width="180" height="20" rx="10" fill="#F3E8FF"/>
  <rect x="930" y="572" width="220" height="14" rx="7" fill="#C084FC" fill-opacity="0.5"/>
  <rect x="1180" y="704" width="140" height="20" rx="10" fill="#FEF3C7"/>
  <defs>
    <linearGradient id="bg" x1="70" y1="70" x2="1530" y2="830" gradientUnits="userSpaceOnUse">
      <stop stop-color="#08121C"/>
      <stop offset="1" stop-color="#05070D"/>
    </linearGradient>
  </defs>
</svg>
