<svg width="1600" height="900" viewBox="0 0 1600 900" fill="none" xmlns="http://www.w3.org/2000/svg">
  <rect width="1600" height="900" fill="#07111B"/>
  <rect x="60" y="60" width="1480" height="780" rx="42" fill="url(#bg)"/>
  <g opacity="0.35">
    <path d="M240 210H1360" stroke="#0EA5E9" stroke-width="1.5" stroke-dasharray="6 10"/>
    <path d="M240 450H1360" stroke="#22D3EE" stroke-width="1.5" stroke-dasharray="6 10"/>
    <path d="M240 690H1360" stroke="#A78BFA" stroke-width="1.5" stroke-dasharray="6 10"/>
  </g>
  <rect x="180" y="150" width="260" height="120" rx="24" fill="#0C1E2D" stroke="#22D3EE" stroke-opacity="0.4"/>
  <rect x="520" y="390" width="300" height="120" rx="24" fill="#0C1E2D" stroke="#38BDF8" stroke-opacity="0.4"/>
  <rect x="980" y="240" width="340" height="140" rx="28" fill="#121729" stroke="#A78BFA" stroke-opacity="0.5"/>
  <rect x="1030" y="560" width="290" height="120" rx="24" fill="#101A24" stroke="#22D3EE" stroke-opacity="0.35"/>
  <circle cx="460" cy="210" r="16" fill="#22D3EE"/>
  <circle cx="860" cy="450" r="18" fill="#38BDF8"/>
  <circle cx="960" cy="620" r="14" fill="#A78BFA"/>
  <path d="M440 210H520" stroke="#22D3EE" stroke-width="3"/>
  <path d="M820 450H980V320" stroke="#38BDF8" stroke-width="3"/>
  <path d="M820 450H1030V620" stroke="#A78BFA" stroke-width="3"/>
  <rect x="220" y="186" width="120" height="16" rx="8" fill="#D5F5FF" fill-opacity="0.9"/>
  <rect x="220" y="214" width="170" height="12" rx="6" fill="#7DD3FC" fill-opacity="0.55"/>
  <rect x="560" y="430" width="170" height="16" rx="8" fill="#E0F2FE" fill-opacity="0.9"/>
  <rect x="560" y="458" width="210" height="12" rx="6" fill="#60A5FA" fill-opacity="0.55"/>
  <rect x="1020" y="282" width="180" height="16" rx="8" fill="#F3E8FF" fill-opacity="0.9"/>
  <rect x="1020" y="310" width="240" height="12" rx="6" fill="#C084FC" fill-opacity="0.55"/>
  <defs>
    <linearGradient id="bg" x1="60" y1="60" x2="1540" y2="840" gradientUnits="userSpaceOnUse">
      <stop stop-color="#0A1624"/>
      <stop offset="1" stop-color="#070B11"/>
    </linearGradient>
  </defs>
</svg>
