<svg width="1600" height="900" viewBox="0 0 1600 900" fill="none" xmlns="http://www.w3.org/2000/svg">
  <rect width="1600" height="900" fill="#070B13"/>
  <rect x="70" y="70" width="1460" height="760" rx="42" fill="url(#bg)"/>
  <path d="M170 640C310 540 390 720 540 640C690 560 750 380 920 420C1090 460 1160 720 1420 520" stroke="#22D3EE" stroke-width="8" stroke-linecap="round"/>
  <path d="M170 710C300 640 420 780 560 700C700 620 790 500 950 540C1110 580 1200 790 1410 640" stroke="#A78BFA" stroke-width="8" stroke-linecap="round" opacity="0.8"/>
  <rect x="180" y="180" width="320" height="160" rx="30" fill="#0D1723" stroke="#22D3EE" stroke-opacity="0.32"/>
  <rect x="560" y="150" width="300" height="160" rx="30" fill="#111626" stroke="#38BDF8" stroke-opacity="0.32"/>
  <rect x="930" y="210" width="360" height="160" rx="30" fill="#13152A" stroke="#A78BFA" stroke-opacity="0.32"/>
  <rect x="220" y="228" width="160" height="18" rx="9" fill="#E0FBFF"/>
  <rect x="220" y="258" width="220" height="12" rx="6" fill="#7DD3FC" fill-opacity="0.5"/>
  <rect x="600" y="198" width="140" height="18" rx="9" fill="#E0F2FE"/>
  <rect x="600" y="228" width="190" height="12" rx="6" fill="#60A5FA" fill-opacity="0.5"/>
  <rect x="970" y="258" width="170" height="18" rx="9" fill="#F3E8FF"/>
  <rect x="970" y="288" width="220" height="12" rx="6" fill="#C084FC" fill-opacity="0.5"/>
  <defs>
    <linearGradient id="bg" x1="70" y1="70" x2="1530" y2="830" gradientUnits="userSpaceOnUse">
      <stop stop-color="#09131E"/>
      <stop offset="1" stop-color="#05070C"/>
    </linearGradient>
  </defs>
</svg>
